<svg width="71" height="22" viewBox="0 0 71 22" fill="none" xmlns="http://www.w3.org/2000/svg">
<path d="M14.6815 10.8884C15.8617 10.975 16.8531 11.408 17.7028 12.2306C18.5525 13.0533 18.9774 14.1791 18.9774 15.608C18.9774 17.3399 18.3637 18.7688 17.0891 19.808C15.8145 20.8471 14.0206 21.3667 11.613 21.3667H0V0.843018H11.5658C13.5957 0.843018 15.248 1.36261 16.4754 2.35848C17.7028 3.39766 18.3165 4.73992 18.3165 6.42858C18.3165 7.72755 17.9388 8.72343 17.1363 9.50281C16.3338 10.2822 15.5312 10.6719 14.6343 10.7585L14.6815 10.8884ZM5.52327 9.32962H10.3384C11.141 9.32962 11.8019 9.11312 12.3211 8.68013C12.7932 8.24714 13.0765 7.72755 13.0765 6.99147C13.0765 6.34199 12.8404 5.8657 12.3683 5.47601C11.8963 5.08632 11.2826 4.91312 10.5745 4.91312H5.52327V9.32962ZM10.6217 17.2966C11.4714 17.2966 12.1795 17.0801 12.6516 16.6904C13.1237 16.3008 13.3597 15.7379 13.3597 15.0018C13.3597 14.309 13.1237 13.7894 12.6044 13.3997C12.1323 13.01 11.4714 12.7935 10.7161 12.7935H5.52327V17.2966H10.6217ZM38.0964 21.3667H32.762V19.8946C31.4402 21.1935 29.6935 21.843 27.6164 21.843C25.6336 21.843 24.0758 21.2368 22.8956 20.0678C21.7154 18.8987 21.1017 17.3399 21.1017 15.4348V5.99559H26.389V14.3956C26.389 15.3049 26.6722 16.041 27.1915 16.6038C27.7108 17.1667 28.4189 17.4265 29.2686 17.4265C30.3544 17.4265 31.2041 17.0801 31.8178 16.3873C32.4315 15.6946 32.7148 14.6121 32.7148 13.1399V5.99559H38.0492L38.0964 21.3667ZM54.5718 21.3667H40.4096V20.4575L47.0658 9.8925H40.5984V5.99559H54.4774V6.90487L47.8211 17.4698H54.5246V21.3667H54.5718ZM71 21.3667H56.885V20.4575L63.494 9.8925H57.0266V5.99559H70.9056V6.90487L64.2493 17.4698H70.9528L71 21.3667Z" fill="#718087"/>
</svg>
